#tb 0: 1/22050
0,          0,          0,      512,     1024, 0x00000000
0,        512,        512,      512,     1024, 0x00000000
0,       1024,       1024,      512,     1024, 0xd89a448e
0,       1533,       1533,      512,     1024, 0x695b369c
0,       2040,       2040,      512,     1024, 0xc8ba5707
0,       2552,       2552,      512,     1024, 0xdf241fc6
0,       3064,       3064,      512,     1024, 0x61cf4166
0,       3576,       3576,      512,     1024, 0x97cbc386
0,       4088,       4088,      512,     1024, 0x44899d04
0,       4598,       4598,      512,     1024, 0xa7cbaa62
0,       5110,       5110,      512,     1024, 0xa7aea60c
0,       5622,       5622,      512,     1024, 0xd7b18a89
0,       6134,       6134,      512,     1024, 0x268e81f6
0,       6646,       6646,      512,     1024, 0x9cf83a2f
0,       7158,       7158,      512,     1024, 0x5559b508
0,       7670,       7670,      512,     1024, 0xe1b9e71c
0,       8182,       8182,      512,     1024, 0xdcee733e
0,       8694,       8694,      512,     1024, 0xe5918f60
0,       9206,       9206,      512,     1024, 0x29dbd209
0,       9718,       9718,      512,     1024, 0x9bcbcf16
0,      10230,      10230,      512,     1024, 0x86f5f458
0,      10742,      10742,      512,     1024, 0xabcbda86
0,      11254,      11254,      512,     1024, 0xc51f77b9
0,      11766,      11766,      512,     1024, 0xf6b3a504
0,      12278,      12278,      512,     1024, 0x1af3e40e
0,      12790,      12790,      512,     1024, 0x3866b03b
0,      13302,      13302,      512,     1024, 0xbc005403
0,      13814,      13814,      512,     1024, 0xe9dfcc51
0,      14326,      14326,      512,     1024, 0x83c837cb
0,      14838,      14838,      512,     1024, 0xfa649580
0,      15350,      15350,      512,     1024, 0x519452ea
0,      15862,      15862,      512,     1024, 0xd4978774
0,      16374,      16374,      512,     1024, 0xe2a3b1cd
0,      16886,      16886,      512,     1024, 0x9a9472ad
0,      17398,      17398,      512,     1024, 0xa12d4060
0,      17910,      17910,      512,     1024, 0x31fb0646
0,      18422,      18422,      512,     1024, 0xfc44343f
0,      18934,      18934,      512,     1024, 0x0847751a
0,      19446,      19446,      512,     1024, 0x227968a2
0,      19958,      19958,      512,     1024, 0x7cce9f1c
0,      20470,      20470,      512,     1024, 0xb8356713
0,      20982,      20982,      512,     1024, 0xb29f6e6f
0,      21494,      21494,      512,     1024, 0x9e1430ab
0,      22006,      22006,      512,     1024, 0x26d85423
0,      22518,      22518,      512,     1024, 0x6496547d
0,      23030,      23030,      512,     1024, 0x316b1a86
0,      23542,      23542,      512,     1024, 0x3cd83afc
0,      24054,      24054,      512,     1024, 0x993ff633
0,      24566,      24566,      512,     1024, 0x0708d1a2
0,      25078,      25078,      512,     1024, 0xd7230db9
0,      25590,      25590,      512,     1024, 0xbb0779ca
0,      26102,      26102,      512,     1024, 0xc6094e1b
0,      26614,      26614,      512,     1024, 0x15a8b039
0,      27126,      27126,      512,     1024, 0xd6dbe88c
0,      27638,      27638,      512,     1024, 0x7e8d1140
0,      28150,      28150,      512,     1024, 0xef88e525
0,      28662,      28662,      512,     1024, 0x44e21149
0,      29174,      29174,      512,     1024, 0x65b0f5f4
0,      29686,      29686,      512,     1024, 0xb955f687
0,      30198,      30198,      512,     1024, 0xc85fba9c
0,      30710,      30710,      512,     1024, 0xf59655ad
0,      31222,      31222,      512,     1024, 0x6de80bf1
0,      31734,      31734,      512,     1024, 0x2dcf6e41
0,      32246,      32246,      512,     1024, 0xd0ddcf8a
0,      32758,      32758,      512,     1024, 0x00135c2d
0,      33270,      33270,      512,     1024, 0x697f8efd
0,      33782,      33782,      512,     1024, 0x7a9bada5
0,      34294,      34294,      512,     1024, 0x0d22783c
0,      34806,      34806,      512,     1024, 0x7726d07d
0,      35318,      35318,      512,     1024, 0xa2f14f67
0,      35830,      35830,      512,     1024, 0x7f51060d
0,      36342,      36342,      512,     1024, 0xc4ec6aea
0,      36854,      36854,      512,     1024, 0x9bb37ca4
0,      37366,      37366,      512,     1024, 0x9b085577
0,      37878,      37878,      512,     1024, 0x8812f8af
0,      38390,      38390,      512,     1024, 0x788f5221
0,      38902,      38902,      512,     1024, 0x3a2ce642
0,      39414,      39414,      512,     1024, 0x72415692
0,      39926,      39926,      512,     1024, 0xe3dcc105
0,      40438,      40438,      512,     1024, 0xb26c0599
0,      40950,      40950,      512,     1024, 0x5c9e55eb
0,      41462,      41462,      512,     1024, 0x8fe88707
0,      41974,      41974,      512,     1024, 0xc5d7beb6
0,      42486,      42486,      512,     1024, 0xe1d3a3b4
0,      42998,      42998,      512,     1024, 0x012da0c6
0,      43510,      43510,      512,     1024, 0x8d010922
0,      44022,      44022,      512,     1024, 0x3366eb0d
0,      44534,      44534,      512,     1024, 0xc9381a27
0,      45046,      45046,      512,     1024, 0x0774f685
0,      45558,      45558,      512,     1024, 0xc5cae0a5
0,      46070,      46070,      512,     1024, 0xa6f4737c
0,      46582,      46582,      512,     1024, 0x8fb6d0d1
0,      47094,      47094,      512,     1024, 0x05f579c2
0,      47606,      47606,      512,     1024, 0x56905d99
0,      48118,      48118,      512,     1024, 0x002ee18d
0,      48630,      48630,      512,     1024, 0xeb37ef51
0,      49142,      49142,      512,     1024, 0x38025635
0,      49654,      49654,      512,     1024, 0x4fe643c8
0,      50166,      50166,      512,     1024, 0x11d66ab1
0,      50678,      50678,      512,     1024, 0xcc3051e9
0,      51190,      51190,      512,     1024, 0xcd93e854
0,      51702,      51702,      512,     1024, 0x38f1196d
0,      52214,      52214,      512,     1024, 0x657a15fc
0,      52726,      52726,      512,     1024, 0x669ce2a9
0,      53238,      53238,      512,     1024, 0x95862dda
0,      53750,      53750,      512,     1024, 0x1726a7b2
0,      54262,      54262,      512,     1024, 0xd6ece2a1
0,      54774,      54774,      512,     1024, 0x33ab9553
0,      55286,      55286,      512,     1024, 0xd50c73a6
0,      55798,      55798,      512,     1024, 0xfe25b63a
0,      56310,      56310,      512,     1024, 0x7e2959e3
0,      56822,      56822,      512,     1024, 0xa4c07b34
0,      57334,      57334,      512,     1024, 0xd6d8f15c
0,      57846,      57846,      512,     1024, 0x1eccddd7
0,      58358,      58358,      512,     1024, 0x2b69f9cb
0,      58870,      58870,      512,     1024, 0x667b775f
0,      59382,      59382,      512,     1024, 0xad3b84e9
0,      59894,      59894,      512,     1024, 0x4f29fc67
0,      60406,      60406,      512,     1024, 0x8d611ab7
0,      60918,      60918,      512,     1024, 0x278966ea
0,      61430,      61430,      512,     1024, 0xaf33812b
0,      61942,      61942,      512,     1024, 0xa55f4265
0,      62454,      62454,      512,     1024, 0x023cb51c
0,      62966,      62966,      512,     1024, 0x1d1f1005
0,      63478,      63478,      512,     1024, 0x874cccf7
0,      63990,      63990,      512,     1024, 0xda705428
0,      64502,      64502,      512,     1024, 0x48d9b440
0,      65014,      65014,      512,     1024, 0xa14e0712
0,      65526,      65526,      512,     1024, 0x7efbad1f
0,      66038,      66038,      512,     1024, 0xdb82c17f
0,      66550,      66550,      512,     1024, 0xcbe87613
0,      67062,      67062,      512,     1024, 0x3a63df1d
0,      67574,      67574,      512,     1024, 0xd5636bba
0,      68086,      68086,      512,     1024, 0x9397af23
0,      68598,      68598,      512,     1024, 0x32a07c98
0,      69110,      69110,      512,     1024, 0x202ca667
0,      69622,      69622,      512,     1024, 0xdf969011
0,      70134,      70134,      512,     1024, 0xc434d238
0,      70646,      70646,      512,     1024, 0xe9ad7562
0,      71158,      71158,      512,     1024, 0xb51b6b50
0,      71670,      71670,      512,     1024, 0xe70aecd3
0,      72182,      72182,      512,     1024, 0x03c816b2
0,      72694,      72694,      512,     1024, 0x869fdf25
0,      73206,      73206,      512,     1024, 0xd40a0a62
0,      73718,      73718,      512,     1024, 0x5af7dd35
0,      74230,      74230,      512,     1024, 0x891ffc72
0,      74742,      74742,      512,     1024, 0x1ff68a08
0,      75254,      75254,      512,     1024, 0x5a7517a9
0,      75766,      75766,      512,     1024, 0x0f959f74
0,      76278,      76278,      512,     1024, 0xe92a12a2
0,      76790,      76790,      512,     1024, 0x38000e55
0,      77302,      77302,      512,     1024, 0x39fbdd70
0,      77814,      77814,      512,     1024, 0xca3d9184
0,      78326,      78326,      512,     1024, 0x66c8995b
0,      78838,      78838,      512,     1024, 0xac25acea
0,      79350,      79350,      512,     1024, 0x3cd1046c
0,      79862,      79862,      512,     1024, 0x6a1df31c
0,      80374,      80374,      512,     1024, 0x21ca10a1
0,      80886,      80886,      512,     1024, 0x1aeccedc
0,      81398,      81398,      512,     1024, 0xddea1335
0,      81910,      81910,      512,     1024, 0x19f5ca9f
0,      82422,      82422,      512,     1024, 0x88e95e43
0,      82934,      82934,      512,     1024, 0x726284fe
0,      83446,      83446,      512,     1024, 0x6b85b40e
0,      83958,      83958,      512,     1024, 0x111fee2a
0,      84470,      84470,      512,     1024, 0x3656b588
0,      84982,      84982,      512,     1024, 0xa5a2b552
0,      85494,      85494,      512,     1024, 0x38fb2467
0,      86006,      86006,      512,     1024, 0xaa919ccc
0,      86518,      86518,      512,     1024, 0x15993dbc
0,      87030,      87030,      512,     1024, 0xbe01a7b9
0,      87542,      87542,      512,     1024, 0xefe93c09
0,      88054,      88054,      512,     1024, 0x1bb566e5
0,      88566,      88566,      512,     1024, 0x15ce6237
0,      89078,      89078,      512,     1024, 0xa8552e66
0,      89590,      89590,      512,     1024, 0x9d80187e
0,      90102,      90102,      512,     1024, 0x5df3fc30
0,      90614,      90614,      512,     1024, 0x1a312aa5
0,      91126,      91126,      512,     1024, 0x6bb8e302
0,      91638,      91638,      512,     1024, 0xbd9684bb
0,      92150,      92150,      512,     1024, 0x78b0b166
0,      92662,      92662,      512,     1024, 0xd9af5eae
0,      93174,      93174,      512,     1024, 0xdb90fe82
0,      93686,      93686,      512,     1024, 0x327614e9
0,      94198,      94198,      512,     1024, 0x1f19b7fe
0,      94710,      94710,      512,     1024, 0x46c53f96
0,      95222,      95222,      512,     1024, 0x921b2189
0,      95734,      95734,      512,     1024, 0xa8fbc85a
0,      96246,      96246,      512,     1024, 0xabfdaaae
0,      96758,      96758,      512,     1024, 0x6acc7387
0,      97270,      97270,      512,     1024, 0x0d9c27b5
0,      97782,      97782,      512,     1024, 0xba4dd809
0,      98294,      98294,      512,     1024, 0x2a2ad521
0,      98806,      98806,      512,     1024, 0x892de38a
0,      99318,      99318,      512,     1024, 0xdc97a2eb
0,      99830,      99830,      512,     1024, 0x4f614ca4
0,     100342,     100342,      512,     1024, 0x9c8a77ea
0,     100854,     100854,      512,     1024, 0x2d30e646
0,     101366,     101366,      512,     1024, 0x74e800a7
0,     101878,     101878,      512,     1024, 0x1e01fb02
0,     102390,     102390,      512,     1024, 0x4ed2c1d8
0,     102902,     102902,      512,     1024, 0xf2fdbe63
0,     103414,     103414,      512,     1024, 0x8d6f63a1
0,     103926,     103926,      512,     1024, 0xded468d9
0,     104438,     104438,      512,     1024, 0xccad839e
0,     104950,     104950,      512,     1024, 0xdde7c082
0,     105462,     105462,      512,     1024, 0x548613c5
0,     105974,     105974,      512,     1024, 0x383909bd
0,     106486,     106486,      512,     1024, 0xfd37627b
0,     106998,     106998,      512,     1024, 0x6d95a481
0,     107510,     107510,      512,     1024, 0x56aa87fa
0,     108022,     108022,      512,     1024, 0x7b67258c
0,     108534,     108534,      512,     1024, 0x7dd99a92
0,     109046,     109046,      512,     1024, 0x4a66d102
0,     109558,     109558,      512,     1024, 0x7b3fce51
0,     110070,     110070,      512,     1024, 0xbbd968aa
0,     110582,     110582,      512,     1024, 0x8283ec36
0,     111094,     111094,      512,     1024, 0x3c96493d
0,     111606,     111606,      512,     1024, 0xfa4f8cf8
0,     112118,     112118,      512,     1024, 0xe2cf872d
0,     112630,     112630,      512,     1024, 0x0a9e7aa6
0,     113142,     113142,      512,     1024, 0x6e7a0550
0,     113654,     113654,      512,     1024, 0x3acfea2f
0,     114166,     114166,      512,     1024, 0x7111d0fa
0,     114678,     114678,      512,     1024, 0xe9a1eca9
0,     115190,     115190,      512,     1024, 0x24da6c46
0,     115702,     115702,      512,     1024, 0x117cff37
0,     116214,     116214,      512,     1024, 0x0f27cab6
0,     116726,     116726,      512,     1024, 0x69b6b4e6
0,     117238,     117238,      512,     1024, 0x1e6cc841
0,     117750,     117750,      512,     1024, 0xb01e2365
0,     118262,     118262,      512,     1024, 0x14e200d3
0,     118774,     118774,      512,     1024, 0xd1184c98
0,     119286,     119286,      512,     1024, 0xef9140e9
0,     119798,     119798,      512,     1024, 0x4cbb645e
0,     120310,     120310,      512,     1024, 0xe7fe2f06
0,     120822,     120822,      512,     1024, 0xf8c45028
0,     121334,     121334,      512,     1024, 0x561358f4
0,     121846,     121846,      512,     1024, 0xd0129b77
0,     122358,     122358,      512,     1024, 0xcc636e88
0,     122870,     122870,      512,     1024, 0xe9406321
0,     123382,     123382,      512,     1024, 0x9f16a041
0,     123894,     123894,      512,     1024, 0x468bf409
0,     124406,     124406,      512,     1024, 0x3df70f7b
0,     124918,     124918,      512,     1024, 0xa880b11b
0,     125430,     125430,      512,     1024, 0x3286c489
0,     125942,     125942,      512,     1024, 0x39fe9ebc
0,     126454,     126454,      512,     1024, 0xc533d83b
0,     126966,     126966,      512,     1024, 0x153b195d
0,     127478,     127478,      512,     1024, 0xd84786a1
0,     127990,     127990,      512,     1024, 0xdc295aaa
0,     128502,     128502,      512,     1024, 0xfb764d8c
0,     129014,     129014,      512,     1024, 0xeebc9db9
0,     129526,     129526,      512,     1024, 0x7ba9403e
0,     130038,     130038,      512,     1024, 0x4e5571ec
0,     130550,     130550,      512,     1024, 0xd965fad4
0,     131062,     131062,      512,     1024, 0x87e259f2
0,     131574,     131574,      512,     1024, 0xae7e533b
0,     132086,     132086,      512,     1024, 0x313cf4d6
0,     132598,     132598,      512,     1024, 0xe1844c90
0,     133110,     133110,      512,     1024, 0xbb057b44
0,     133622,     133622,      512,     1024, 0xa5099687
0,     134134,     134134,      512,     1024, 0xbff10707
0,     134646,     134646,      512,     1024, 0x37c4ffc0
0,     135158,     135158,      512,     1024, 0xf9fb6caa
0,     135670,     135670,      512,     1024, 0x3b6a3a1f
0,     136182,     136182,      512,     1024, 0x83431edb
0,     136694,     136694,      512,     1024, 0x1eb713cf
0,     137206,     137206,      512,     1024, 0xd7b07a6d
0,     137718,     137718,      512,     1024, 0x81ae3391
0,     138230,     138230,      512,     1024, 0xf150130a
0,     138742,     138742,      512,     1024, 0x09678eaa
0,     139254,     139254,      512,     1024, 0xb94e06f1
0,     139766,     139766,      512,     1024, 0x67b1dbc9
0,     140278,     140278,      512,     1024, 0xd6edc235
0,     140790,     140790,      512,     1024, 0x34e4c499
0,     141302,     141302,      512,     1024, 0xeefd89c0
0,     141814,     141814,      512,     1024, 0x38afdaf1
0,     142326,     142326,      512,     1024, 0x29a60d76
0,     142838,     142838,      512,     1024, 0xe28a4372
0,     143350,     143350,      512,     1024, 0x7089454d
0,     143862,     143862,      512,     1024, 0x0c01bb7b
0,     144374,     144374,      512,     1024, 0xbd776a72
0,     144886,     144886,      512,     1024, 0x86776fd0
0,     145398,     145398,      512,     1024, 0xb37c88f7
0,     145910,     145910,      512,     1024, 0x5f90aaf8
0,     146422,     146422,      512,     1024, 0x203d4222
0,     146934,     146934,      512,     1024, 0x382692a6
0,     147446,     147446,      512,     1024, 0xf37c95fd
0,     147958,     147958,      512,     1024, 0x6c0b8877
0,     148470,     148470,      512,     1024, 0x2e54a8b6
0,     148982,     148982,      512,     1024, 0x7f266488
0,     149494,     149494,      512,     1024, 0xfbf20f9a
0,     150006,     150006,      512,     1024, 0xf2985cc0
0,     150518,     150518,      512,     1024, 0xc7075340
0,     151030,     151030,      512,     1024, 0xe4585695
0,     151542,     151542,      512,     1024, 0xbdffa380
0,     152054,     152054,      512,     1024, 0x2422a8a9
0,     152566,     152566,      512,     1024, 0x59cbd75f
0,     153078,     153078,      512,     1024, 0x04ad1a8c
0,     153590,     153590,      512,     1024, 0x33c09191
0,     154102,     154102,      512,     1024, 0x55efa6fd
0,     154614,     154614,      512,     1024, 0xf73d0e5d
0,     155126,     155126,      512,     1024, 0x6141ebae
0,     155638,     155638,      512,     1024, 0x7db17a68
0,     156150,     156150,      512,     1024, 0xa6c690b6
0,     156662,     156662,      512,     1024, 0xa6fd6725
0,     157174,     157174,      512,     1024, 0x50a90b9b
0,     157686,     157686,      512,     1024, 0xef990dc8
0,     158198,     158198,      512,     1024, 0x75adf6b5
0,     158710,     158710,      512,     1024, 0x61eac43e
0,     159222,     159222,      512,     1024, 0x67797a19
0,     159734,     159734,      512,     1024, 0xf325277a
0,     160246,     160246,      512,     1024, 0x18bf254a
0,     160758,     160758,      512,     1024, 0x2ce6bee3
0,     161270,     161270,      512,     1024, 0x8d320860
0,     161782,     161782,      512,     1024, 0xc979b6e8
0,     162294,     162294,      512,     1024, 0xdb644b41
0,     162806,     162806,      512,     1024, 0xe1b368ba
0,     163318,     163318,      512,     1024, 0xacc53d15
0,     163830,     163830,      512,     1024, 0x42ea8c18
0,     164342,     164342,      512,     1024, 0xe52c99a4
0,     164854,     164854,      512,     1024, 0xd7db54a6
0,     165366,     165366,      512,     1024, 0x7f27a7e3
0,     165878,     165878,      512,     1024, 0xf7ffeaa9
0,     166390,     166390,      512,     1024, 0x792b6088
0,     166902,     166902,      512,     1024, 0x61d99724
0,     167414,     167414,      512,     1024, 0x5213720e
0,     167926,     167926,      512,     1024, 0xac09dd30
0,     168438,     168438,      512,     1024, 0x960bf6bb
0,     168950,     168950,      512,     1024, 0xc90168e1
0,     169462,     169462,      512,     1024, 0x43b45768
0,     169974,     169974,      512,     1024, 0x935d60a1
0,     170486,     170486,      512,     1024, 0x9a342ef2
0,     170998,     170998,      512,     1024, 0xc894709f
0,     171510,     171510,      512,     1024, 0x59b43b07
0,     172022,     172022,      512,     1024, 0x36a1a98d
0,     172534,     172534,      512,     1024, 0x9e1a121c
0,     173046,     173046,      512,     1024, 0x02208b78
0,     173558,     173558,      512,     1024, 0xd1d7b274
0,     174070,     174070,      512,     1024, 0xdacd5096
0,     174582,     174582,      512,     1024, 0x51b71ead
0,     175094,     175094,      512,     1024, 0xd009a7ca
0,     175606,     175606,      512,     1024, 0xb6d5a938
0,     176118,     176118,      512,     1024, 0xf3d45e47
0,     176630,     176630,      512,     1024, 0xea8e04fc
0,     177142,     177142,      512,     1024, 0x0b928bd8
0,     177654,     177654,      512,     1024, 0x0f02caec
0,     178166,     178166,      512,     1024, 0xe2b137a8
0,     178678,     178678,      512,     1024, 0xd5f94892
